<mxfile host="app.diagrams.net" agent="Mozilla/5.0 (Windows NT 10.0; Win64; x64) AppleWebKit/537.36 (KHTML, like Gecko) Chrome/140.0.0.0 Safari/537.36" version="26.1.0">
  <diagram name="Page-1" id="fc2ac565-0d4e-3f0d-88b0-a54af1634ed7">
    <mxGraphModel dx="1034" dy="528" grid="1" gridSize="10" guides="1" tooltips="1" connect="0" arrows="1" fold="1" page="1" pageScale="1.5" pageWidth="1169" pageHeight="827" background="none" math="0" shadow="0">
      <root>
        <mxCell id="0" style=";html=1;" />
        <mxCell id="1" style=";html=1;" parent="0" />
        <mxCell id="75" value="Task 1" style="align=left;strokeColor=#CCCCCC;html=1;" parent="1" vertex="1">
          <mxGeometry x="297" y="150" width="43" height="20" as="geometry" />
        </mxCell>
        <mxCell id="80" value="Task 2" style="align=left;strokeColor=#CCCCCC;html=1;" parent="1" vertex="1">
          <mxGeometry x="297" y="170" width="43" height="20" as="geometry" />
        </mxCell>
        <mxCell id="85" value="Task 3" style="align=left;strokeColor=#CCCCCC;html=1;" parent="1" vertex="1">
          <mxGeometry x="297" y="190" width="43" height="20" as="geometry" />
        </mxCell>
        <mxCell id="90" value="Task 4" style="align=left;strokeColor=#CCCCCC;html=1;" parent="1" vertex="1">
          <mxGeometry x="297" y="210" width="43" height="20" as="geometry" />
        </mxCell>
        <mxCell id="95" value="Task 5" style="align=left;strokeColor=#CCCCCC;html=1;" parent="1" vertex="1">
          <mxGeometry x="297" y="230" width="43" height="20" as="geometry" />
        </mxCell>
        <mxCell id="100" value="Task 6" style="align=left;strokeColor=#CCCCCC;html=1;" parent="1" vertex="1">
          <mxGeometry x="297" y="250" width="43" height="20" as="geometry" />
        </mxCell>
        <mxCell id="2" value="Time" style="strokeWidth=1;fontStyle=0;html=1;" parent="1" vertex="1">
          <mxGeometry x="297" y="130" width="43" height="20" as="geometry" />
        </mxCell>
        <mxCell id="67c90442a009f359-291" value="" style="align=left;strokeColor=#CCCCCC;html=1;" parent="1" vertex="1">
          <mxGeometry x="340" y="150" width="840" height="20" as="geometry" />
        </mxCell>
        <mxCell id="4" value="0-2" style="strokeWidth=1;fontStyle=0;html=1;" parent="1" vertex="1">
          <mxGeometry x="340" y="130" width="70" height="20" as="geometry" />
        </mxCell>
        <mxCell id="67c90442a009f359-278" value="2-4" style="strokeWidth=1;fontStyle=0;html=1;" parent="1" vertex="1">
          <mxGeometry x="410" y="130" width="70" height="20" as="geometry" />
        </mxCell>
        <mxCell id="67c90442a009f359-279" value="4-6" style="strokeWidth=1;fontStyle=0;html=1;" parent="1" vertex="1">
          <mxGeometry x="480" y="130" width="70" height="20" as="geometry" />
        </mxCell>
        <mxCell id="67c90442a009f359-280" value="6-8" style="strokeWidth=1;fontStyle=0;html=1;" parent="1" vertex="1">
          <mxGeometry x="550" y="130" width="70" height="20" as="geometry" />
        </mxCell>
        <mxCell id="67c90442a009f359-281" value="8-10" style="strokeWidth=1;fontStyle=0;html=1;" parent="1" vertex="1">
          <mxGeometry x="620" y="130" width="70" height="20" as="geometry" />
        </mxCell>
        <mxCell id="67c90442a009f359-282" value="10-12" style="strokeWidth=1;fontStyle=0;html=1;" parent="1" vertex="1">
          <mxGeometry x="690" y="130" width="70" height="20" as="geometry" />
        </mxCell>
        <mxCell id="67c90442a009f359-283" value="12-14" style="strokeWidth=1;fontStyle=0;html=1;" parent="1" vertex="1">
          <mxGeometry x="760" y="130" width="70" height="20" as="geometry" />
        </mxCell>
        <mxCell id="67c90442a009f359-284" value="14-16" style="strokeWidth=1;fontStyle=0;html=1;" parent="1" vertex="1">
          <mxGeometry x="830" y="130" width="70" height="20" as="geometry" />
        </mxCell>
        <mxCell id="67c90442a009f359-285" value="16-18" style="strokeWidth=1;fontStyle=0;html=1;" parent="1" vertex="1">
          <mxGeometry x="900" y="130" width="70" height="20" as="geometry" />
        </mxCell>
        <mxCell id="67c90442a009f359-286" value="18-20" style="strokeWidth=1;fontStyle=0;html=1;" parent="1" vertex="1">
          <mxGeometry x="970" y="130" width="70" height="20" as="geometry" />
        </mxCell>
        <mxCell id="67c90442a009f359-287" value="20-22" style="strokeWidth=1;fontStyle=0;html=1;" parent="1" vertex="1">
          <mxGeometry x="1040" y="130" width="70" height="20" as="geometry" />
        </mxCell>
        <mxCell id="67c90442a009f359-288" value="22-24" style="strokeWidth=1;fontStyle=0;html=1;" parent="1" vertex="1">
          <mxGeometry x="1110" y="130" width="70" height="20" as="geometry" />
        </mxCell>
        <mxCell id="67c90442a009f359-292" value="" style="align=left;strokeColor=#CCCCCC;html=1;" parent="1" vertex="1">
          <mxGeometry x="340" y="170" width="840" height="20" as="geometry" />
        </mxCell>
        <mxCell id="67c90442a009f359-293" value="" style="align=left;strokeColor=#CCCCCC;html=1;" parent="1" vertex="1">
          <mxGeometry x="340" y="190" width="840" height="20" as="geometry" />
        </mxCell>
        <mxCell id="67c90442a009f359-294" value="" style="align=left;strokeColor=#CCCCCC;html=1;" parent="1" vertex="1">
          <mxGeometry x="340" y="210" width="840" height="20" as="geometry" />
        </mxCell>
        <mxCell id="67c90442a009f359-295" value="" style="align=left;strokeColor=#CCCCCC;html=1;" parent="1" vertex="1">
          <mxGeometry x="340" y="230" width="840" height="20" as="geometry" />
        </mxCell>
        <mxCell id="67c90442a009f359-296" value="" style="align=left;strokeColor=#CCCCCC;html=1;" parent="1" vertex="1">
          <mxGeometry x="340" y="250" width="840" height="20" as="geometry" />
        </mxCell>
        <mxCell id="67c90442a009f359-299" value="" style="whiteSpace=wrap;html=1;strokeWidth=2;fillColor=#CCCCCC;gradientColor=none;fontSize=14;align=center;strokeColor=#999999;" parent="1" vertex="1">
          <mxGeometry x="340" y="150" width="210" height="20" as="geometry" />
        </mxCell>
        <mxCell id="67c90442a009f359-300" value="" style="whiteSpace=wrap;html=1;strokeWidth=2;fillColor=#CCCCCC;gradientColor=none;fontSize=14;align=center;strokeColor=#999999;" parent="1" vertex="1">
          <mxGeometry x="410" y="170" width="140" height="20" as="geometry" />
        </mxCell>
        <mxCell id="67c90442a009f359-301" value="" style="whiteSpace=wrap;html=1;strokeWidth=2;fillColor=#CCCCCC;gradientColor=none;fontSize=14;align=center;strokeColor=#999999;" parent="1" vertex="1">
          <mxGeometry x="550" y="190" width="70" height="20" as="geometry" />
        </mxCell>
        <mxCell id="67c90442a009f359-302" value="" style="whiteSpace=wrap;html=1;strokeWidth=2;fillColor=#CCCCCC;gradientColor=none;fontSize=14;align=center;strokeColor=#999999;" parent="1" vertex="1">
          <mxGeometry x="620" y="210" width="210" height="20" as="geometry" />
        </mxCell>
        <mxCell id="67c90442a009f359-303" value="" style="whiteSpace=wrap;html=1;strokeWidth=2;fillColor=#CCCCCC;gradientColor=none;fontSize=14;align=center;strokeColor=#999999;" parent="1" vertex="1">
          <mxGeometry x="830" y="230" width="140" height="20" as="geometry" />
        </mxCell>
        <mxCell id="67c90442a009f359-304" value="" style="whiteSpace=wrap;html=1;strokeWidth=2;fillColor=#CCCCCC;gradientColor=none;fontSize=14;align=center;strokeColor=#999999;" parent="1" vertex="1">
          <mxGeometry x="830" y="250" width="210" height="20" as="geometry" />
        </mxCell>
      </root>
    </mxGraphModel>
  </diagram>
</mxfile>
